<?xml version="1.0" encoding="UTF-8"?>
<svg id="Ebene_1" data-name="Ebene 1" xmlns="http://www.w3.org/2000/svg" viewBox="0 0 1656.604 1506.538">
  <defs>
    <style>
      .cls-1 {
        fill: none;
      }

      .cls-2, .cls-3 {
        fill: #1d1d1b;
        font-family: Arial-BoldMT, Arial;
        font-size: 730.804px;
      }

      .cls-3 {
        letter-spacing: -.018em;
      }
    </style>
  </defs>
  <g>
    <path class="cls-1" d="M805.954,1307.23c-21.629,77.421-77.715,129.99-154.238,162.136-165.542,69.539-361.795,47.275-487.027-115.996-71.39-93.075-111.77-197.809-139.849-307.575C-.714,945.898-7.064,845.075,8.176,743.503c22.826-152.132,85.513-290.071,179.087-416.356,75.334-101.669,163.121-192.763,271.803-265.35,40.251-26.883,82.844-49.939,132.623-58.931,65.199-11.778,109.834,17.623,114.679,78.372,2.697,33.812,.484,67.957,.484,101.952-.827,.001-1.654,.002-2.481,.004,0,100.502-2.215,201.056,.549,301.493,3.627,131.81,19.42,262.688,46.329,392.304,16.863,81.229,34.382,162.348,50.337,243.729,12.122,61.831,21.724,124.385,4.368,186.511Zm710.694,8.635c-45.551,70.91-105.107,129.087-188.534,163.082-128.379,52.312-320.068,28.105-420.723-73.505-51.489-51.978-70.071-113.158-67.004-181.719,3.841-85.875,28.158-168.682,43.84-252.807,18.314-98.246,36.222-196.637,50.364-295.445,16.541-115.565,19.302-232.05,16.945-348.55-1.463-72.296-4.265-144.57-5.74-216.866-.29-14.227,1.414-28.76,4.482-42.725,11.129-50.662,52.023-74.955,109.192-65.22,52.832,8.996,98.065,33.331,140.213,62.468,145.068,100.282,255.821,227.391,340.241,374.612,51.214,89.313,86.211,183.992,103.152,283.797,7.461,43.954,9.872,88.638,13.527,123.092-8.374,173.446-49.022,328.228-139.955,469.785Z"/>
    <path d="M704.372,183.194c0,100.502-2.215,201.056,.549,301.493,3.627,131.81,19.42,262.688,46.329,392.304,16.863,81.229,34.382,162.348,50.337,243.729,12.122,61.831,21.724,124.385,4.368,186.511-21.629,77.421-77.715,129.99-154.238,162.135-165.542,69.539-361.795,47.275-487.027-115.996-71.39-93.075-111.77-197.809-139.849-307.575C-.714,945.898-7.064,845.075,8.176,743.503c22.826-152.132,85.513-290.071,179.087-416.356,75.334-101.669,163.121-192.763,271.803-265.35,40.251-26.883,82.844-49.939,132.623-58.931,65.199-11.778,109.834,17.623,114.679,78.372,2.697,33.812,.484,67.957,.484,101.952l-2.481,.004Zm-15.289-13.078c0-33.273,.948-55.657-.199-77.95-2.33-45.29-22.543-69.646-62.354-73.625-13.848-1.384-28.729,1.139-42.443,4.381-52.438,12.396-96.666,39.539-138.089,70.188-143.024,105.825-253.24,235.839-332.098,388.464-62.05,120.094-95.029,246.628-94.821,379.832,.101,64.426,10.269,128.018,26.922,190.631,26.054,97.963,62.346,191.941,123.549,276.658,112.715,156.017,282.021,191.997,449.345,134.567,121.123-41.572,182.93-126.677,175.765-243.167-3.274-53.23-13.722-106.375-24.878-158.842-26.793-126.015-55.766-251.78-68.82-379.72-9.329-91.425-14.749-183.375-16.831-275.189-1.867-82.321,3.206-164.775,4.951-236.228Z"/>
    <path d="M1656.604,846.08c-8.374,173.446-49.022,328.228-139.955,469.786-45.551,70.91-105.107,129.087-188.534,163.082-128.379,52.312-320.068,28.105-420.723-73.505-51.489-51.978-70.071-113.158-67.004-181.719,3.841-85.875,28.158-168.682,43.84-252.806,18.314-98.246,36.221-196.637,50.364-295.445,16.541-115.566,19.302-232.05,16.945-348.55-1.463-72.296-4.265-144.57-5.739-216.866-.29-14.227,1.414-28.76,4.482-42.725,12.534-57.059,89.594-68.557,109.192-65.22,52.832,8.996,98.065,33.331,140.213,62.468,145.068,100.282,255.821,227.391,340.241,374.612,51.214,89.313,86.211,183.992,103.152,283.797,7.461,43.954,9.872,88.638,13.527,123.092Zm-19.245-5.856c-5.027-38.173-8.952-90.741-19.313-142.205-26.657-132.403-85.926-252.686-168.238-363.297-74.222-99.739-160.697-189.177-267.876-260.041-39.897-26.379-82.1-48.969-132.018-55.969-41.073-5.76-72.156,12.79-79.901,50.392-3.737,18.139-6.068,36.879-5.772,55.303,.794,49.394,5.228,98.777,4.814,148.14-.87,103.656-.339,207.498-7.18,310.88-5.74,86.731-18.358,173.316-32.903,259.249-20.383,120.423-47.754,239.85-67.504,360.349-11.728,71.554,5.945,138.51,63.076,192.729,90.715,86.092,255.031,117.532,380.047,72.985,79.626-28.373,138.721-79.548,183.484-144.564,98.487-143.049,140.938-301.576,149.285-483.951Z"/>
  </g>
  <text class="cls-3" transform="translate(139.302 985.936)"><tspan x="0" y="0">L</tspan></text>
  <text class="cls-2" transform="translate(1019.935 1010.066)"><tspan x="0" y="0">H</tspan></text>
</svg>