<?xml version="1.0" encoding="UTF-8"?>
<svg id="Ebene_1" data-name="Ebene 1" xmlns="http://www.w3.org/2000/svg" viewBox="0 0 1656.604 1506.229">
  <defs>
    <style>
      .cls-1 {
        fill: #2196f3;
      }

      .cls-2, .cls-3 {
        fill: #fff;
        font-family: Arial-BoldMT, Arial;
        font-size: 730.804px;
      }

      .cls-3 {
        letter-spacing: -.018em;
      }
    </style>
  </defs>
  <g>
    <path class="cls-1" d="M704.372,182.884c0,100.502-2.215,201.056,.549,301.493,3.627,131.81,19.42,262.688,46.329,392.304,16.863,81.229,34.382,162.348,50.337,243.729,12.122,61.831,21.724,124.385,4.368,186.511-21.629,77.421-77.715,129.99-154.238,162.135-165.542,69.539-361.795,47.275-487.027-115.996-71.39-93.075-111.77-197.809-139.849-307.575C-.714,945.588-7.064,844.765,8.176,743.193c22.826-152.132,85.513-290.071,179.087-416.356,75.334-101.669,163.121-192.763,271.803-265.35,40.251-26.883,82.844-49.939,132.623-58.931,65.199-11.778,109.834,17.623,114.679,78.372,2.697,33.812,.484,67.957,.484,101.952l-2.481,.004h0Zm-15.488-91.028"/>
    <path class="cls-1" d="M1656.604,845.77c-8.374,173.446-49.022,328.228-139.955,469.786-45.551,70.91-105.107,129.087-188.534,163.082-128.379,52.312-320.068,28.105-420.723-73.505-51.489-51.978-70.071-113.158-67.004-181.719,3.841-85.875,28.158-168.682,43.84-252.806,18.314-98.246,36.221-196.637,50.364-295.445,16.541-115.566,19.302-232.05,16.945-348.55-1.463-72.296-4.265-144.57-5.739-216.866-.29-14.227,1.414-28.76,4.482-42.725C962.813,9.963,1039.873-1.535,1059.471,1.801c52.832,8.996,98.065,33.331,140.213,62.468,145.068,100.282,255.821,227.391,340.241,374.612,51.214,89.313,86.211,183.992,103.152,283.797,7.461,43.954,9.872,88.638,13.527,123.092h0Z"/>
  </g>
  <text class="cls-3" transform="translate(153.149 989.068)"><tspan x="0" y="0">L</tspan></text>
  <text class="cls-2" transform="translate(1021.461 989.068)"><tspan x="0" y="0">H</tspan></text>
</svg>