<?xml version="1.0" encoding="UTF-8"?>
<svg id="Ebene_1" data-name="Ebene 1" xmlns="http://www.w3.org/2000/svg" viewBox="0 0 1656.604 1506.126">
  <defs>
    <style>
      .cls-1 {
        fill: none;
      }

      .cls-2 {
        fill: #e73b2a;
      }

      .cls-3 {
        fill: #1ec8a5;
      }

      .cls-4 {
        fill: #fff;
        font-family: Arial-BoldMT, Arial;
        font-size: 730.804px;
        isolation: isolate;
      }
    </style>
  </defs>
  <g>
    <path class="cls-2" d="M704.404,182.865c0,100.5-2.2,201.1,.5,301.5,3.6,131.8,19.4,262.7,46.3,392.3,16.9,81.2,34.4,162.3,50.3,243.7,12.1,61.8,21.7,124.4,4.4,186.5-21.6,77.4-77.7,130-154.2,162.1-165.5,69.5-361.8,47.3-487-116-71.4-93.1-111.8-197.8-139.8-307.6C-.696,945.565-7.096,844.765,8.204,743.165c22.8-152.1,85.5-290.1,179.1-416.4,75.3-101.6,163.1-192.7,271.8-265.3,40.3-26.9,82.8-49.9,132.6-58.9,65.2-11.8,109.8,17.6,114.7,78.3,2.7,33.8,.5,68,.5,102h-2.5Z"/>
    <path class="cls-3" d="M1656.604,845.765c-8.4,173.4-49,328.2-140,469.8-45.6,70.9-105.1,129.1-188.5,163.1-128.4,52.3-320.1,28.1-420.7-73.5-51.5-52-70.1-113.2-67-181.7,3.8-85.9,28.2-168.7,43.8-252.8,18.3-98.2,36.2-196.6,50.4-295.4,16.5-115.6,19.3-232,16.9-348.5-1.5-72.3-4.3-144.6-5.7-216.9-.3-14.2,1.4-28.8,4.5-42.7C962.804,10.065,1039.904-1.435,1059.504,1.965c52.8,9,98.1,33.3,140.2,62.5,145.1,100.3,255.8,227.4,340.2,374.6,51.2,89.3,86.2,184,103.2,283.8,7.4,43.7,9.8,88.4,13.5,122.9h0Z"/>
  </g>
  <rect class="cls-1" x="104.204" y="465.765" width="531.2" height="630.9"/>
  <text class="cls-4" transform="translate(105.871 989.043)"><tspan x="0" y="0">R</tspan></text>
  <rect class="cls-1" x="1019.804" y="465.765" width="531.2" height="630.9"/>
  <text class="cls-4" transform="translate(1041.625 989.043)"><tspan x="0" y="0">V</tspan></text>
</svg>